<svg xmlns="http://www.w3.org/2000/svg" width="20cm" height="20cm" viewBox="0 0 200 200"><circle cx="100" cy="100" r="100" style="fill:#8a0;stroke-width:.264583"/><ellipse cx="248.533" cy="66.795" rx=".68" ry=".49" style="fill:#a00;stroke-width:.264583"/><g style="font-size:194.028px;line-height:1.25;stroke-width:.264583"><path d="M76.426 127.455 52.56 34.322l20.955-5.24 21.925 85.373q1.359-5.045 3.493-9.895 2.328-4.851 5.433-8.926 3.104-4.268 6.79-7.955 3.881-3.686 7.18-7.76 3.492-4.075 5.432-8.926 2.135-5.045 2.135-10.284 0-2.134-.388-4.268-.388-2.329-1.359-4.269-.97-1.94-2.91-3.298-1.746-1.359-3.88-1.747-.389-.194-.97-.194h-.97q-2.523 0-4.851 1.553-2.135 1.552-3.493 3.88-1.358 2.134-2.134 4.657-.776 2.522-1.164 5.045L82.44 58.575q.777-6.015 3.105-11.448 2.522-5.626 6.403-9.895 4.074-4.463 9.701-6.791 5.627-2.328 11.642-2.328 4.463 0 8.925.97 4.463.776 8.537 2.716 4.075 1.94 7.373 5.045 3.299 3.104 5.24 7.179 2.134 3.88 3.104 8.343.97 4.463.97 8.925 0 4.657-.97 9.314-.97 4.656-2.717 9.12-1.746 4.268-4.268 8.342-2.329 3.88-5.24 7.567-2.91 3.493-6.402 6.791-3.298 3.299-6.209 7.18-2.716 3.686-4.268 8.149-1.553 4.268-2.329 8.925l-21.343-3.493v-.194zm18.238 44.432q-3.492 0-6.79-1.164-3.3-.97-5.822-3.298-2.328-2.523-3.492-5.821-.97-3.299-.97-6.791 0-3.493.97-6.791 1.164-3.493 3.492-5.82 2.523-2.523 5.821-3.493 3.299-.97 6.791-.97 3.493 0 6.791.97 3.299.97 5.627 3.492 2.522 2.328 3.493 5.82 1.164 3.3 1.164 6.792t-1.164 6.79q-.97 3.3-3.493 5.822-2.328 2.328-5.627 3.298-3.298 1.164-6.79 1.164z" aria-label="‽" style="font-weight:700;font-family:Iosevka;-inkscape-font-specification:Iosevka;fill:#e5ff80"/></g></svg>