<?xml version="1.0" encoding="UTF-8" standalone="no"?>
<svg
   width="20cm"
   height="20cm"
   viewBox="0 0 200 200"
   version="1.1"
   id="svg10"
   sodipodi:docname="mask-icon.svg"
   inkscape:version="1.1.1 (3bf5ae0d25, 2021-09-20)"
   xmlns:inkscape="http://www.inkscape.org/namespaces/inkscape"
   xmlns:sodipodi="http://sodipodi.sourceforge.net/DTD/sodipodi-0.dtd"
   xmlns="http://www.w3.org/2000/svg"
   xmlns:svg="http://www.w3.org/2000/svg">
  <defs
     id="defs14" />
  <sodipodi:namedview
     id="namedview12"
     pagecolor="#ffffff"
     bordercolor="#666666"
     borderopacity="1.0"
     inkscape:pageshadow="2"
     inkscape:pageopacity="0.0"
     inkscape:pagecheckerboard="0"
     inkscape:document-units="cm"
     showgrid="false"
     inkscape:zoom="1.1549062"
     inkscape:cx="377.95276"
     inkscape:cy="377.95276"
     inkscape:window-width="1669"
     inkscape:window-height="1311"
     inkscape:window-x="0"
     inkscape:window-y="96"
     inkscape:window-maximized="1"
     inkscape:current-layer="svg10" />
  <path
     id="circle2"
     style="fill:#000000;stroke-width:0.999999"
     d="M 377.95312 0 A 377.95276 377.95276 0 0 0 0 377.95312 A 377.95276 377.95276 0 0 0 377.95312 755.90625 A 377.95276 377.95276 0 0 0 755.90625 377.95312 A 377.95276 377.95276 0 0 0 377.95312 0 z M 428.18555 106.25391 C 439.4309 106.25391 450.67513 107.47583 461.91797 109.91992 C 473.16332 111.8752 483.92035 115.29736 494.18555 120.18555 C 504.45326 125.07374 513.74086 131.42833 522.05078 139.25195 C 530.36322 147.07306 536.96476 156.119 541.85547 166.38672 C 547.23248 176.1631 551.1438 186.67261 553.58789 197.91797 C 556.03199 209.16332 557.25391 220.40756 557.25391 231.65039 C 557.25391 243.38456 556.03199 255.11934 553.58789 266.85352 C 551.1438 278.58517 547.72025 290.07439 543.31836 301.32227 C 538.91899 312.07628 533.54215 322.58637 527.1875 332.85156 C 521.31915 342.62794 514.71762 352.16109 507.38281 361.45117 C 500.05053 370.25243 491.98429 378.80727 483.18555 387.11719 C 474.87563 395.42963 467.05355 404.47696 459.71875 414.25586 C 452.87529 423.54342 447.49844 433.80933 443.58789 445.05469 C 439.67482 455.8087 436.74043 467.05294 434.78516 478.78711 L 354.11914 465.58398 L 354.11914 464.85156 L 288.85352 481.71875 L 198.65234 129.7207 L 277.85156 109.91602 L 360.71875 432.58594 C 364.143 419.87413 368.54291 407.40797 373.91992 395.1875 C 379.78575 382.96451 386.63146 371.71889 394.45508 361.45117 C 402.27618 350.69716 410.82963 340.67484 420.11719 331.38477 C 429.89609 322.09721 438.94147 312.32184 447.25391 302.05664 C 456.05265 291.78892 462.89697 280.5433 467.78516 268.32031 C 473.16468 255.6085 475.85352 242.6518 475.85352 229.45117 C 475.85352 224.07416 475.36436 218.69732 474.38672 213.32031 C 473.40908 207.45197 471.69857 202.07374 469.25195 197.18555 C 466.80786 192.29736 463.14014 188.14244 458.25195 184.7207 C 453.85258 181.29645 448.9649 179.09483 443.58789 178.11719 C 442.60773 177.62837 441.38581 177.38477 439.92188 177.38477 L 436.25586 177.38477 C 429.89869 177.38477 423.7877 179.34084 417.92188 183.25391 C 412.54235 187.16446 408.14048 192.05214 404.71875 197.91797 C 401.29702 203.29498 398.60957 209.16237 396.6543 215.51953 C 394.69902 221.87418 393.23154 228.23073 392.25391 234.58789 L 311.58398 221.38672 C 313.54178 206.23081 317.45449 191.80664 323.32031 178.11719 C 329.67496 163.94144 337.74063 151.47529 347.51953 140.71875 C 357.78473 129.4734 370.00728 120.91856 384.18555 115.05273 C 398.36381 109.18691 413.02964 106.25391 428.18555 106.25391 z M 357.78516 520.58789 C 366.58642 520.58789 375.14125 521.80981 383.45117 524.25391 C 391.76361 526.698 398.85292 531.09848 404.71875 537.45312 C 411.0734 543.31895 415.47526 550.65048 417.92188 559.44922 C 420.85479 567.76418 422.32031 576.3204 422.32031 585.11914 C 422.32031 593.91788 420.85479 602.47328 417.92188 610.7832 C 415.47778 619.09816 411.07592 626.43246 404.71875 632.78711 C 398.85292 638.65294 391.76361 642.80786 383.45117 645.25195 C 375.14125 648.18487 366.5878 649.65234 357.78906 649.65234 L 357.78516 649.65234 C 348.98642 649.65234 340.43297 648.18487 332.12305 645.25195 C 323.80809 642.80786 316.47183 638.65294 310.11719 632.78711 C 304.25136 626.42994 299.85284 619.09703 296.91992 610.78711 C 294.47583 602.47467 293.25391 593.91788 293.25391 585.11914 C 293.25391 576.31788 294.47583 567.76305 296.91992 559.45312 C 299.85284 550.65187 304.25136 543.32034 310.11719 537.45703 C 316.47435 531.09987 323.80922 526.698 332.11914 524.25391 C 340.43158 521.80981 348.98642 520.58789 357.78516 520.58789 z "
     transform="scale(0.26458333)" />
  <ellipse
     cx="248.533"
     cy="66.795"
     rx=".68"
     ry=".49"
     style="fill:#a00;stroke-width:.264583"
     id="ellipse4" />
  <g
     style="font-size:194.028px;line-height:1.25;stroke-width:.264583"
     id="g8" />
</svg>
